<svg width="25" height="24" viewBox="0 0 25 24" fill="none" xmlns="http://www.w3.org/2000/svg">
<g clip-path="url(#clip0_13_1708)">
<path d="M20.9546 3L20.7946 3.03L15.4546 5.1L9.45459 3L3.81459 4.9C3.60459 4.97 3.45459 5.15 3.45459 5.38V20.5C3.45459 20.78 3.67459 21 3.95459 21L4.11459 20.97L9.45459 18.9L15.4546 21L21.0946 19.1C21.3046 19.03 21.4546 18.85 21.4546 18.62V3.5C21.4546 3.22 21.2346 3 20.9546 3ZM10.4546 5.47L14.4546 6.87V18.53L10.4546 17.13V5.47ZM5.45459 6.46L8.45459 5.45V17.15L5.45459 18.31V6.46ZM19.4546 17.54L16.4546 18.55V6.86L19.4546 5.7V17.54Z" fill="black"/>
</g>
<defs>
<clipPath id="clip0_13_1708">
<rect width="24" height="24" fill="white" transform="translate(0.45459)"/>
</clipPath>
</defs>
</svg>
