<svg width="25" height="24" viewBox="0 0 25 24" fill="none" xmlns="http://www.w3.org/2000/svg">
<g clip-path="url(#clip0_13_1705)">
<path d="M4.72729 13C5.82729 13 6.72729 12.1 6.72729 11C6.72729 9.9 5.82729 9 4.72729 9C3.6273 9 2.72729 9.9 2.72729 11C2.72729 12.1 3.6273 13 4.72729 13ZM5.8573 14.1C5.4873 14.04 5.11729 14 4.72729 14C3.73729 14 2.7973 14.21 1.94729 14.58C1.20729 14.9 0.727295 15.62 0.727295 16.43V18H5.22729V16.39C5.22729 15.56 5.45729 14.78 5.8573 14.1ZM20.7273 13C21.8273 13 22.7273 12.1 22.7273 11C22.7273 9.9 21.8273 9 20.7273 9C19.6273 9 18.7273 9.9 18.7273 11C18.7273 12.1 19.6273 13 20.7273 13ZM24.7273 16.43C24.7273 15.62 24.2473 14.9 23.5073 14.58C22.6573 14.21 21.7173 14 20.7273 14C20.3373 14 19.9673 14.04 19.5973 14.1C19.9973 14.78 20.2273 15.56 20.2273 16.39V18H24.7273V16.43ZM16.9673 13.65C15.7973 13.13 14.3573 12.75 12.7273 12.75C11.0973 12.75 9.6573 13.14 8.4873 13.65C7.4073 14.13 6.72729 15.21 6.72729 16.39V18H18.7273V16.39C18.7273 15.21 18.0473 14.13 16.9673 13.65ZM8.79729 16C8.88729 15.77 8.92729 15.61 9.70729 15.31C10.6773 14.93 11.6973 14.75 12.7273 14.75C13.7573 14.75 14.7773 14.93 15.7473 15.31C16.5173 15.61 16.5573 15.77 16.6573 16H8.79729ZM12.7273 8C13.2773 8 13.7273 8.45 13.7273 9C13.7273 9.55 13.2773 10 12.7273 10C12.1773 10 11.7273 9.55 11.7273 9C11.7273 8.45 12.1773 8 12.7273 8ZM12.7273 6C11.0673 6 9.72729 7.34 9.72729 9C9.72729 10.66 11.0673 12 12.7273 12C14.3873 12 15.7273 10.66 15.7273 9C15.7273 7.34 14.3873 6 12.7273 6Z" fill="black"/>
</g>
<defs>
<clipPath id="clip0_13_1705">
<rect width="24" height="24" fill="white" transform="translate(0.727295)"/>
</clipPath>
</defs>
</svg>
