<svg width="25" height="24" viewBox="0 0 25 24" fill="none" xmlns="http://www.w3.org/2000/svg">
<path d="M16.5056 21.32C16.3156 21.32 16.1256 21.25 15.9756 21.1L14.4556 19.58C14.1656 19.29 14.1656 18.81 14.4556 18.52C14.7456 18.23 15.2256 18.23 15.5156 18.52L16.5056 19.51L19.0156 17C19.3056 16.71 19.7856 16.71 20.0756 17C20.3656 17.29 20.3656 17.77 20.0756 18.06L17.0356 21.1C16.8856 21.25 16.6956 21.32 16.5056 21.32Z" fill="#F1F3F5"/>
<path d="M12.7056 11.62C12.6756 11.62 12.6556 11.62 12.6256 11.62C12.5756 11.61 12.5056 11.61 12.4456 11.62C9.54564 11.53 7.35564 9.25 7.35564 6.44C7.34564 5.06 7.88564 3.76 8.86564 2.78C9.84564 1.8 11.1456 1.25 12.5356 1.25C15.3956 1.25 17.7256 3.58 17.7256 6.44C17.7256 9.25 15.5356 11.52 12.7356 11.62C12.7256 11.62 12.7156 11.62 12.7056 11.62ZM12.5356 2.75C11.5456 2.75 10.6256 3.14 9.92564 3.83C9.23564 4.53 8.85564 5.45 8.85564 6.43C8.85564 8.43 10.4156 10.05 12.4056 10.11C12.4656 10.1 12.5956 10.1 12.7256 10.11C14.6956 10.02 16.2256 8.41 16.2256 6.43C16.2256 4.41 14.5656 2.75 12.5356 2.75Z" fill="#F1F3F5"/>
<path d="M12.5356 22.5601C10.4956 22.5601 8.56563 22.0301 7.10563 21.0501C5.71563 20.1201 4.95563 18.8501 4.95563 17.4801C4.95563 16.1101 5.72563 14.8501 7.10563 13.9301C10.0956 11.9301 14.9556 11.9301 17.9456 13.9301C18.2856 14.1601 18.3856 14.6301 18.1556 14.9701C17.9256 15.3201 17.4556 15.4101 17.1156 15.1801C14.6256 13.5201 10.4256 13.5201 7.93563 15.1801C6.97563 15.8201 6.45563 16.6301 6.45563 17.4801C6.45563 18.3301 6.97563 19.1601 7.93563 19.8001C9.14563 20.6101 10.7756 21.0501 12.5256 21.0501C12.9356 21.0501 13.2756 21.3901 13.2756 21.8001C13.2756 22.2101 12.9456 22.5601 12.5356 22.5601Z" fill="#F1F3F5"/>
</svg>
